<?xml version="1.0" standalone="no"?>
<!DOCTYPE svg PUBLIC "-//W3C//DTD SVG 20010904//EN"
 "http://www.w3.org/TR/2001/REC-SVG-20010904/DTD/svg10.dtd">
<svg version="1.0" xmlns="http://www.w3.org/2000/svg"
 width="600.000000pt" height="600.000000pt" viewBox="0 0 600.000000 600.000000"
 preserveAspectRatio="xMidYMid meet">
<metadata>
Created by potrace 1.14, written by Peter Selinger 2001-2017
</metadata>
<g transform="translate(0.000000,600.000000) scale(0.100000,-0.100000)"
fill="#000000" stroke="none">
<path d="M2330 4250 l0 -240 215 0 215 0 0 -320 0 -320 -398 0 -398 0 -189
190 -189 190 -368 0 -368 0 0 -1125 0 -1125 2150 0 2150 0 0 1130 0 1130 -368
0 -367 0 -195 -195 -195 -195 -392 0 -393 0 0 320 0 320 220 0 220 0 0 240 0
240 -675 0 -675 0 0 -240z"/>
</g>
</svg>
